# xmcd CD database file
#
# Track frame offsets:
#	150
#	22113
#	48388
#	71262
#	92562
#	108611
#	125636
#	143504
#	162102
#	181484
#	197045
#	219076
#	244125
#	265761
#	288334
#
# Disc length: 4047 seconds
#
# Revision: 0
# Processed by: cddbd v1.5.2PL0 Copyright (c) Steve Scherf et al.
# Submitted via: CDex 1.51
#
DISCID=d40fcd0f
DTITLE=Various Artist - Salsa-Bachata-Merengue
DYEAR=2008
DGENRE=Salsa
TTITLE0=Gonzales, Willi - Pequenas Cosas
TTITLE1=Rivera, Willi - El Carino Es Como Una Flor
TTITLE2=Arroyo, Joe - En Barranquilla Me Quedo
TTITLE3=Anthony, Marc - Te Conozco Bien
TTITLE4=Montanez, Andy - Cobarde Cobarde
TTITLE5=Monchy Y Alexandra - En Un Dos Por Tres
TTITLE6=Vanessa - Quedate Con El
TTITLE7=Monchy Y Alexandra - Hasta El Final
TTITLE8=Monchy Y Alexandra - Te Regalo
TTITLE9=Monchy Y Alexandra - No Es Una Novela
TTITLE10=Vargas, Wilfrido - Cupido De Flecha
TTITLE11=Rodriguez, Lalo - Devorame Otra Vez
TTITLE12=Rosario, Hermanos - La Duena Del Swing
TTITLE13=Herrera, Eddie - Pegame Tu Vicio
TTITLE14=Rodriguez, Omega D. - Nuestra Cancion
EXTD=YEAR: 2008
EXTT0=
EXTT1=
EXTT2=
EXTT3=
EXTT4=
EXTT5=
EXTT6=
EXTT7=
EXTT8=
EXTT9=
EXTT10=
EXTT11=
EXTT12=
EXTT13=
EXTT14=
PLAYORDER=
